<?xml version="1.0" encoding="iso-8859-1"?>
<!-- Generator: Adobe Illustrator 19.0.0, SVG Export Plug-In . SVG Version: 6.00 Build 0)  -->
<svg version="1.1" id="Capa_1" xmlns="http://www.w3.org/2000/svg" xmlns:xlink="http://www.w3.org/1999/xlink" x="0px" y="0px"
	 viewBox="0 0 480 480" style="enable-background:new 0 0 480 480;" xml:space="preserve">
<g>
	<g>
		<path d="M432,184.64V128c0-4.418-3.582-8-8-8h-72.304c0.184-2.64,0.304-5.304,0.304-8C352,50.144,301.856,0,240,0
			S128,50.144,128,112c0,2.696,0.12,5.36,0.304,8H56c-30.913,0.035-55.965,25.087-56,56v248c0.035,30.913,25.087,55.965,56,56h368
			c4.418,0,8-3.582,8-8v-80.64c27.527-3.973,47.967-27.547,48-55.36v-96C479.967,212.187,459.527,188.613,432,184.64z M240,16
			c52.996,0.057,95.943,43.004,96,96c0.01,4.896-0.359,9.785-1.104,14.624c-3.349,22.265-14.524,42.608-31.52,57.376H264v-17.136
			c17.002-4.279,27.315-21.531,23.036-38.532c-1.6-6.356-5.128-12.061-10.1-16.332c0.552-0.48,1.16-0.864,1.68-1.384
			c12.476-12.424,12.517-32.609,0.093-45.085c-4.057-4.073-9.139-6.974-14.709-8.395V40h-16v16h-16V40h-16v16h-16v16h8v80h-8v16h16
			v16h-39.392c-16.92-14.833-28.074-35.153-31.504-57.392c-0.745-4.833-1.115-9.717-1.104-14.608
			C144.057,59.004,187.004,16.057,240,16z M224,152v-32h32c8.837,0,16,7.163,16,16s-7.163,16-16,16H224z M248,168v16h-16v-16H248z
			 M224,104V72h32c8.837,0,16,7.163,16,16s-7.163,16-16,16H224z M56,136h74.68c1.196,5.446,2.8,10.795,4.8,16H48v16h95.016
			c3.263,5.648,7.01,11.001,11.2,16H48v16h352v-16h-74.312c4.186-5.002,7.933-10.355,11.2-16H400v-16h-55.448
			c1.993-5.207,3.598-10.555,4.8-16H416v80l-360,0.48V216c-22.091,0-40-17.909-40-40S33.909,136,56,136z M416,464H56
			c-22.08-0.026-39.974-17.92-40-40V215.12c10.509,10.794,24.935,16.882,40,16.88v0.48L416,232v48H304c-30.928,0-56,25.072-56,56
			c0,30.928,25.072,56,56,56h112V464z M464,336c-0.026,22.08-17.92,39.974-40,40H304c-22.091,0-40-17.909-40-40
			c0-22.091,17.909-40,40-40h120c15.065,0.002,29.491-6.086,40-16.88V336z M463.24,247.96c-3.196,15.741-15.499,28.044-31.24,31.24
			V224v-23.2C453.65,205.196,467.636,226.31,463.24,247.96z"/>
	</g>
</g>
<g>
	<g>
		<path d="M304,312c-13.255,0-24,10.745-24,24s10.745,24,24,24s24-10.745,24-24S317.255,312,304,312z M304,344c-4.418,0-8-3.582-8-8
			s3.582-8,8-8s8,3.582,8,8S308.418,344,304,344z"/>
	</g>
</g>
<g>
	<g>
		<rect x="368" y="248" width="24" height="16"/>
	</g>
</g>
<g>
	<g>
		<rect x="328" y="248" width="24" height="16"/>
	</g>
</g>
<g>
	<g>
		<rect x="288" y="248" width="24" height="16"/>
	</g>
</g>
<g>
	<g>
		<rect x="248" y="248" width="24" height="16"/>
	</g>
</g>
<g>
	<g>
		<rect x="208" y="248" width="24" height="16"/>
	</g>
</g>
<g>
	<g>
		<rect x="168" y="248" width="24" height="16"/>
	</g>
</g>
<g>
	<g>
		<rect x="128" y="248" width="24" height="16"/>
	</g>
</g>
<g>
	<g>
		<rect x="88" y="248" width="24" height="16"/>
	</g>
</g>
<g>
	<g>
		<rect x="48" y="248" width="24" height="16"/>
	</g>
</g>
<g>
	<g>
		<rect x="368" y="432" width="24" height="16"/>
	</g>
</g>
<g>
	<g>
		<rect x="328" y="432" width="24" height="16"/>
	</g>
</g>
<g>
	<g>
		<rect x="288" y="432" width="24" height="16"/>
	</g>
</g>
<g>
	<g>
		<rect x="248" y="432" width="24" height="16"/>
	</g>
</g>
<g>
	<g>
		<rect x="208" y="432" width="24" height="16"/>
	</g>
</g>
<g>
	<g>
		<rect x="168" y="432" width="24" height="16"/>
	</g>
</g>
<g>
	<g>
		<rect x="128" y="432" width="24" height="16"/>
	</g>
</g>
<g>
	<g>
		<rect x="88" y="432" width="24" height="16"/>
	</g>
</g>
<g>
	<g>
		<rect x="48" y="432" width="24" height="16"/>
	</g>
</g>
<g>
</g>
<g>
</g>
<g>
</g>
<g>
</g>
<g>
</g>
<g>
</g>
<g>
</g>
<g>
</g>
<g>
</g>
<g>
</g>
<g>
</g>
<g>
</g>
<g>
</g>
<g>
</g>
<g>
</g>
</svg>
